<?xml version="1.0" encoding="UTF-8" standalone="no"?>
<!-- Created with Inkscape (http://www.inkscape.org/) -->

<svg
   xmlns:dc="http://purl.org/dc/elements/1.1/"
   xmlns:cc="http://creativecommons.org/ns#"
   xmlns:rdf="http://www.w3.org/1999/02/22-rdf-syntax-ns#"
   xmlns:svg="http://www.w3.org/2000/svg"
   xmlns="http://www.w3.org/2000/svg"
   xmlns:sodipodi="http://sodipodi.sourceforge.net/DTD/sodipodi-0.dtd"
   xmlns:inkscape="http://www.inkscape.org/namespaces/inkscape"
   id="svg3390"
   version="1.1"
   inkscape:version="0.91 r"
   width="1056.25"
   height="1066.25"
   viewBox="0 0 1056.25 1066.25"
   sodipodi:docname="ccl-logo.svg">
  <metadata
     id="metadata3396">
    <rdf:RDF>
      <cc:Work
         rdf:about="">
        <dc:format>image/svg+xml</dc:format>
        <dc:type
           rdf:resource="http://purl.org/dc/dcmitype/StillImage" />
        <dc:title></dc:title>
      </cc:Work>
    </rdf:RDF>
  </metadata>
  <defs
     id="defs3394" />
  <sodipodi:namedview
     pagecolor="#ffffff"
     bordercolor="#666666"
     borderopacity="1"
     objecttolerance="10"
     gridtolerance="10"
     guidetolerance="10"
     inkscape:pageopacity="0"
     inkscape:pageshadow="2"
     inkscape:window-width="1440"
     inkscape:window-height="848"
     id="namedview3392"
     showgrid="false"
     inkscape:zoom="0.52180957"
     inkscape:cx="600.8918"
     inkscape:cy="530.39911"
     inkscape:window-x="0"
     inkscape:window-y="0"
     inkscape:window-maximized="1"
     inkscape:current-layer="svg3390" />
  <path
     style="fill:none;fill-rule:evenodd;stroke:none;stroke-width:1.06599283px;stroke-linecap:butt;stroke-linejoin:miter;stroke-opacity:1"
     id="path3448"
     ry="250.8502"
     rx="258.84637"
     cy="454.32431"
     cx="615.95435" />
  <circle
     cy="454.32431"
     cx="615.95435"
     id="ellipse4250"
     style="fill:none;fill-rule:evenodd;stroke:none;stroke-width:1.06599283px;stroke-linecap:butt;stroke-linejoin:miter;stroke-opacity:1"
     r="371.85895" />
  <circle
     r="463.11145"
     style="fill:none;fill-rule:evenodd;stroke:none;stroke-width:1.06599283px;stroke-linecap:butt;stroke-linejoin:miter;stroke-opacity:1"
     id="circle4252"
     cx="615.95435"
     cy="454.32431" />
  <path
     id="circle4254"
     style="fill:none;fill-rule:evenodd;stroke:none;stroke-width:1.06599283px;stroke-linecap:butt;stroke-linejoin:miter;stroke-opacity:1"
     r="585.29626"
     cy="454.32431"
     cx="615.95435" />
  <path
     style="fill:none;fill-rule:evenodd;stroke:none;stroke-width:1px;stroke-linecap:butt;stroke-linejoin:miter;stroke-opacity:1"
     d="M 185.89157,25.640499 C 442.69023,288.18838 442.69023,288.18838 442.69023,288.18838"
     id="path4256"
     inkscape:connector-curvature="0" />
  <path
     style="fill:none;fill-rule:evenodd;stroke:none;stroke-width:1px;stroke-linecap:butt;stroke-linejoin:miter;stroke-opacity:1"
     d="M 778.06162,623.55977 C 1042.5259,884.19125 1042.5259,884.19125 1042.5259,884.19125"
     id="path4258"
     inkscape:connector-curvature="0" />
  <g
     id="g4278"
     style="stroke:#000003;stroke-opacity:1">
    <path
       style="fill:#000003;fill-opacity:0.62352943;stroke:none;stroke-opacity:1"
       d="m 475.26917,470.24713 c 106.04124,0 212.08247,0 318.12371,0 0,40.24457 0,80.48913 0,120.7337 -106.04124,0 -212.08247,0 -318.12371,0 0,-40.24457 0,-80.48913 0,-120.7337 z m -1.91642,-212.72128 c 42.16098,0 84.32196,0 126.48294,0 0,111.15166 0,222.30332 0,333.45498 -42.16098,0 -84.32196,0 -126.48294,0 0,-111.15166 0,-222.30332 0,-333.45498 z"
       id="rect4276"
       inkscape:connector-curvature="0" />
  </g>
  <path
     style="fill:#88bd00;fill-opacity:0.72941178;stroke:none;stroke-opacity:0.05882353"
     d="M 579.81132,1037.3157 C 452.50257,1026.1165 349.42804,986.62729 254.98017,912.86884 70.672606,768.93499 -9.6934353,522.80867 53.823186,296.81222 78.484372,209.06605 127.32987,121.86041 187.60686,57.963345 l 13.82568,-14.656007 41.52422,42.734209 41.52423,42.734213 -12.58708,13.59024 c -61.71458,66.63314 -104.11052,158.71588 -116.5491,253.14123 -3.98284,30.23507 -3.98914,86.74785 -0.013,116.82516 13.76062,104.09223 59.18631,196.80597 132.19971,269.81937 37.1644,37.1644 74.21346,63.75318 122.01842,87.56827 65.93823,32.84857 133.23918,48.55288 207.63136,48.44967 116.07372,-0.16098 228.68195,-44.00259 312.50607,-121.66736 l 11.63001,-10.77544 42.02941,42.1484 42.02944,42.1484 -12.9489,12.34976 c -33.29217,31.75177 -85.99578,68.62501 -130.00381,90.95506 -83.69415,42.46708 -163.36331,62.43168 -255.66018,64.06688 -21.08049,0.3734 -42.20888,0.3376 -46.95199,-0.08 l 0,-10e-5 z"
     id="path4289"
     inkscape:connector-curvature="0" />
  <path
     style="fill:#0098da;fill-opacity:1;stroke:none;stroke-opacity:0.05882353"
     d="M 573.10389,822.51618 C 404.67711,801.0151 272.92761,672.02703 249.25122,505.45138 c -3.73581,-26.28335 -3.69644,-77.13396 0.0797,-102.99077 10.3946,-71.17552 39.57121,-135.1121 87.04958,-190.75732 6.82532,-7.99935 12.86971,-14.54428 13.43197,-14.54428 0.56226,0 18.88352,17.89446 40.71391,39.76546 l 39.69161,39.76547 -11.51222,13.12679 c -30.10838,34.33104 -49.00168,72.40808 -58.62297,118.14715 -4.6531,22.12054 -4.66479,69.13591 -0.023,92.51436 9.67046,48.70557 33.60715,93.26381 69.24434,128.89859 38.09953,38.09695 84.5614,62.4492 139.00872,72.85919 24.71074,4.72456 71.09367,4.78502 94.79266,0.12361 45.41184,-8.93219 88.27659,-28.61383 120.47179,-55.31543 l 9.25061,-7.67213 40.57599,40.54951 40.57601,40.54952 -8.62383,7.71483 c -55.25418,49.43 -124.01124,81.80183 -196.89831,92.70259 -18.05062,2.69958 -78.82998,3.73707 -95.3539,1.62766 z"
     id="path4291"
     inkscape:connector-curvature="0" />
</svg>
